ISO-10303-21;
HEADER;
/* Generated by software containing ST-Developer
 * from STEP Tools, Inc. (www.steptools.com) 
 */
/* OPTION: using custom renumber hook */

FILE_DESCRIPTION(
/* description */ ('STEP AP242 Edition 2',
'CAx-IF Rec.Pracs.---Representation and Presentation of Product Manufa
cturing Information (PMI)---4.0---2014-10-13',
'CAx-IF Rec.Pracs.---3D Tessellated Geometry---0.4---2014-09-14','2;1',
'CAx-IF Rec.Pracs.---User Defined Attributes---1.5---2016-08-15'),
/* implementation_level */ '2;1');

FILE_NAME(
/* name */ 'Part Studio 1 - Rook',
/* time_stamp */ '2026-09-21T15:35:06Z',
/* author */ (''),
/* organization */ (''),
/* preprocessor_version */ 'ST-DEVELOPER v20',
/* originating_system */ 'ONSHAPE BY PTC INC, 1.221',
/* authorisation */ '  ');

FILE_SCHEMA (('AP242_MANAGED_MODEL_BASED_3D_ENGINEERING_MIM_LF { 1 0 10303 442 3 1 4 }'));
ENDSEC;

DATA;
#10=SHAPE_REPRESENTATION_RELATIONSHIP('','',#690,#11);
#11=ADVANCED_BREP_SHAPE_REPRESENTATION('',(#688),#1177);
#12=TOROIDAL_SURFACE('',#765,0.014605,0.00127);
#13=TOROIDAL_SURFACE('',#766,0.013799837465984,0.00127);
#14=TOROIDAL_SURFACE('',#767,0.014605,0.00127);
#15=CONICAL_SURFACE('',#755,0.009525,0.0872664625997164);
#16=CYLINDRICAL_SURFACE('',#740,0.013462);
#17=CYLINDRICAL_SURFACE('',#746,0.009525);
#18=CYLINDRICAL_SURFACE('',#757,0.015875);
#19=LINE('',#983,#75);
#20=LINE('',#987,#76);
#21=LINE('',#989,#77);
#22=LINE('',#992,#78);
#23=LINE('',#994,#79);
#24=LINE('',#996,#80);
#25=LINE('',#1000,#81);
#26=LINE('',#1004,#82);
#27=LINE('',#1005,#83);
#28=LINE('',#1010,#84);
#29=LINE('',#1014,#85);
#30=LINE('',#1016,#86);
#31=LINE('',#1019,#87);
#32=LINE('',#1020,#88);
#33=LINE('',#1024,#89);
#34=LINE('',#1028,#90);
#35=LINE('',#1029,#91);
#36=LINE('',#1034,#92);
#37=LINE('',#1038,#93);
#38=LINE('',#1040,#94);
#39=LINE('',#1043,#95);
#40=LINE('',#1044,#96);
#41=LINE('',#1048,#97);
#42=LINE('',#1052,#98);
#43=LINE('',#1053,#99);
#44=LINE('',#1058,#100);
#45=LINE('',#1062,#101);
#46=LINE('',#1064,#102);
#47=LINE('',#1067,#103);
#48=LINE('',#1068,#104);
#49=LINE('',#1072,#105);
#50=LINE('',#1076,#106);
#51=LINE('',#1077,#107);
#52=LINE('',#1082,#108);
#53=LINE('',#1086,#109);
#54=LINE('',#1088,#110);
#55=LINE('',#1091,#111);
#56=LINE('',#1092,#112);
#57=LINE('',#1096,#113);
#58=LINE('',#1100,#114);
#59=LINE('',#1101,#115);
#60=LINE('',#1106,#116);
#61=LINE('',#1110,#117);
#62=LINE('',#1112,#118);
#63=LINE('',#1115,#119);
#64=LINE('',#1116,#120);
#65=LINE('',#1120,#121);
#66=LINE('',#1124,#122);
#67=LINE('',#1125,#123);
#68=LINE('',#1131,#124);
#69=LINE('',#1135,#125);
#70=LINE('',#1139,#126);
#71=LINE('',#1143,#127);
#72=LINE('',#1147,#128);
#73=LINE('',#1153,#129);
#74=LINE('',#1155,#130);
#75=VECTOR('',#774,1.);
#76=VECTOR('',#777,1.);
#77=VECTOR('',#780,1.);
#78=VECTOR('',#781,1.);
#79=VECTOR('',#782,1.);
#80=VECTOR('',#783,1.);
#81=VECTOR('',#788,1.);
#82=VECTOR('',#793,1.);
#83=VECTOR('',#794,1.);
#84=VECTOR('',#799,1.);
#85=VECTOR('',#802,1.);
#86=VECTOR('',#805,1.);
#87=VECTOR('',#806,1.);
#88=VECTOR('',#807,1.);
#89=VECTOR('',#812,1.);
#90=VECTOR('',#817,1.);
#91=VECTOR('',#818,1.);
#92=VECTOR('',#823,1.);
#93=VECTOR('',#826,1.);
#94=VECTOR('',#829,1.);
#95=VECTOR('',#830,1.);
#96=VECTOR('',#831,1.);
#97=VECTOR('',#836,1.);
#98=VECTOR('',#841,1.);
#99=VECTOR('',#842,1.);
#100=VECTOR('',#847,1.);
#101=VECTOR('',#850,1.);
#102=VECTOR('',#853,1.);
#103=VECTOR('',#854,1.);
#104=VECTOR('',#855,1.);
#105=VECTOR('',#860,1.);
#106=VECTOR('',#865,1.);
#107=VECTOR('',#866,1.);
#108=VECTOR('',#871,1.);
#109=VECTOR('',#874,1.);
#110=VECTOR('',#877,1.);
#111=VECTOR('',#878,1.);
#112=VECTOR('',#879,1.);
#113=VECTOR('',#884,1.);
#114=VECTOR('',#889,1.);
#115=VECTOR('',#890,1.);
#116=VECTOR('',#895,1.);
#117=VECTOR('',#898,1.);
#118=VECTOR('',#901,1.);
#119=VECTOR('',#902,1.);
#120=VECTOR('',#903,1.);
#121=VECTOR('',#908,1.);
#122=VECTOR('',#913,1.);
#123=VECTOR('',#914,1.);
#124=VECTOR('',#921,1.);
#125=VECTOR('',#924,1.);
#126=VECTOR('',#929,1.);
#127=VECTOR('',#934,1.);
#128=VECTOR('',#937,1.);
#129=VECTOR('',#946,1.);
#130=VECTOR('',#949,1.);
#131=ORIENTED_EDGE('',*,*,#317,.T.);
#132=ORIENTED_EDGE('',*,*,#318,.F.);
#133=ORIENTED_EDGE('',*,*,#319,.F.);
#134=ORIENTED_EDGE('',*,*,#320,.T.);
#135=ORIENTED_EDGE('',*,*,#321,.F.);
#136=ORIENTED_EDGE('',*,*,#322,.F.);
#137=ORIENTED_EDGE('',*,*,#323,.T.);
#138=ORIENTED_EDGE('',*,*,#324,.F.);
#139=ORIENTED_EDGE('',*,*,#325,.T.);
#140=ORIENTED_EDGE('',*,*,#326,.F.);
#141=ORIENTED_EDGE('',*,*,#327,.T.);
#142=ORIENTED_EDGE('',*,*,#321,.T.);
#143=ORIENTED_EDGE('',*,*,#328,.T.);
#144=ORIENTED_EDGE('',*,*,#320,.F.);
#145=ORIENTED_EDGE('',*,*,#329,.T.);
#146=ORIENTED_EDGE('',*,*,#326,.T.);
#147=ORIENTED_EDGE('',*,*,#330,.T.);
#148=ORIENTED_EDGE('',*,*,#331,.F.);
#149=ORIENTED_EDGE('',*,*,#332,.F.);
#150=ORIENTED_EDGE('',*,*,#333,.T.);
#151=ORIENTED_EDGE('',*,*,#334,.F.);
#152=ORIENTED_EDGE('',*,*,#335,.F.);
#153=ORIENTED_EDGE('',*,*,#318,.T.);
#154=ORIENTED_EDGE('',*,*,#336,.F.);
#155=ORIENTED_EDGE('',*,*,#337,.T.);
#156=ORIENTED_EDGE('',*,*,#338,.F.);
#157=ORIENTED_EDGE('',*,*,#339,.T.);
#158=ORIENTED_EDGE('',*,*,#334,.T.);
#159=ORIENTED_EDGE('',*,*,#340,.T.);
#160=ORIENTED_EDGE('',*,*,#333,.F.);
#161=ORIENTED_EDGE('',*,*,#341,.T.);
#162=ORIENTED_EDGE('',*,*,#338,.T.);
#163=ORIENTED_EDGE('',*,*,#342,.T.);
#164=ORIENTED_EDGE('',*,*,#343,.F.);
#165=ORIENTED_EDGE('',*,*,#344,.F.);
#166=ORIENTED_EDGE('',*,*,#345,.T.);
#167=ORIENTED_EDGE('',*,*,#346,.F.);
#168=ORIENTED_EDGE('',*,*,#347,.F.);
#169=ORIENTED_EDGE('',*,*,#331,.T.);
#170=ORIENTED_EDGE('',*,*,#348,.F.);
#171=ORIENTED_EDGE('',*,*,#349,.T.);
#172=ORIENTED_EDGE('',*,*,#350,.F.);
#173=ORIENTED_EDGE('',*,*,#351,.T.);
#174=ORIENTED_EDGE('',*,*,#346,.T.);
#175=ORIENTED_EDGE('',*,*,#352,.T.);
#176=ORIENTED_EDGE('',*,*,#345,.F.);
#177=ORIENTED_EDGE('',*,*,#353,.T.);
#178=ORIENTED_EDGE('',*,*,#350,.T.);
#179=ORIENTED_EDGE('',*,*,#354,.T.);
#180=ORIENTED_EDGE('',*,*,#355,.F.);
#181=ORIENTED_EDGE('',*,*,#356,.F.);
#182=ORIENTED_EDGE('',*,*,#357,.T.);
#183=ORIENTED_EDGE('',*,*,#358,.F.);
#184=ORIENTED_EDGE('',*,*,#359,.F.);
#185=ORIENTED_EDGE('',*,*,#343,.T.);
#186=ORIENTED_EDGE('',*,*,#360,.F.);
#187=ORIENTED_EDGE('',*,*,#361,.T.);
#188=ORIENTED_EDGE('',*,*,#362,.F.);
#189=ORIENTED_EDGE('',*,*,#363,.T.);
#190=ORIENTED_EDGE('',*,*,#358,.T.);
#191=ORIENTED_EDGE('',*,*,#364,.T.);
#192=ORIENTED_EDGE('',*,*,#357,.F.);
#193=ORIENTED_EDGE('',*,*,#365,.T.);
#194=ORIENTED_EDGE('',*,*,#362,.T.);
#195=ORIENTED_EDGE('',*,*,#366,.T.);
#196=ORIENTED_EDGE('',*,*,#367,.F.);
#197=ORIENTED_EDGE('',*,*,#368,.F.);
#198=ORIENTED_EDGE('',*,*,#369,.T.);
#199=ORIENTED_EDGE('',*,*,#370,.F.);
#200=ORIENTED_EDGE('',*,*,#371,.F.);
#201=ORIENTED_EDGE('',*,*,#355,.T.);
#202=ORIENTED_EDGE('',*,*,#372,.F.);
#203=ORIENTED_EDGE('',*,*,#373,.T.);
#204=ORIENTED_EDGE('',*,*,#374,.F.);
#205=ORIENTED_EDGE('',*,*,#375,.T.);
#206=ORIENTED_EDGE('',*,*,#370,.T.);
#207=ORIENTED_EDGE('',*,*,#376,.T.);
#208=ORIENTED_EDGE('',*,*,#369,.F.);
#209=ORIENTED_EDGE('',*,*,#377,.T.);
#210=ORIENTED_EDGE('',*,*,#374,.T.);
#211=ORIENTED_EDGE('',*,*,#378,.T.);
#212=ORIENTED_EDGE('',*,*,#379,.F.);
#213=ORIENTED_EDGE('',*,*,#380,.F.);
#214=ORIENTED_EDGE('',*,*,#381,.T.);
#215=ORIENTED_EDGE('',*,*,#382,.F.);
#216=ORIENTED_EDGE('',*,*,#383,.F.);
#217=ORIENTED_EDGE('',*,*,#367,.T.);
#218=ORIENTED_EDGE('',*,*,#384,.F.);
#219=ORIENTED_EDGE('',*,*,#385,.T.);
#220=ORIENTED_EDGE('',*,*,#386,.F.);
#221=ORIENTED_EDGE('',*,*,#387,.T.);
#222=ORIENTED_EDGE('',*,*,#382,.T.);
#223=ORIENTED_EDGE('',*,*,#388,.T.);
#224=ORIENTED_EDGE('',*,*,#381,.F.);
#225=ORIENTED_EDGE('',*,*,#389,.T.);
#226=ORIENTED_EDGE('',*,*,#386,.T.);
#227=ORIENTED_EDGE('',*,*,#390,.T.);
#228=ORIENTED_EDGE('',*,*,#391,.F.);
#229=ORIENTED_EDGE('',*,*,#392,.F.);
#230=ORIENTED_EDGE('',*,*,#393,.F.);
#231=ORIENTED_EDGE('',*,*,#394,.T.);
#232=ORIENTED_EDGE('',*,*,#378,.F.);
#233=ORIENTED_EDGE('',*,*,#388,.F.);
#234=ORIENTED_EDGE('',*,*,#385,.F.);
#235=ORIENTED_EDGE('',*,*,#384,.T.);
#236=ORIENTED_EDGE('',*,*,#366,.F.);
#237=ORIENTED_EDGE('',*,*,#376,.F.);
#238=ORIENTED_EDGE('',*,*,#373,.F.);
#239=ORIENTED_EDGE('',*,*,#372,.T.);
#240=ORIENTED_EDGE('',*,*,#354,.F.);
#241=ORIENTED_EDGE('',*,*,#364,.F.);
#242=ORIENTED_EDGE('',*,*,#361,.F.);
#243=ORIENTED_EDGE('',*,*,#360,.T.);
#244=ORIENTED_EDGE('',*,*,#342,.F.);
#245=ORIENTED_EDGE('',*,*,#352,.F.);
#246=ORIENTED_EDGE('',*,*,#349,.F.);
#247=ORIENTED_EDGE('',*,*,#348,.T.);
#248=ORIENTED_EDGE('',*,*,#330,.F.);
#249=ORIENTED_EDGE('',*,*,#340,.F.);
#250=ORIENTED_EDGE('',*,*,#337,.F.);
#251=ORIENTED_EDGE('',*,*,#336,.T.);
#252=ORIENTED_EDGE('',*,*,#317,.F.);
#253=ORIENTED_EDGE('',*,*,#328,.F.);
#254=ORIENTED_EDGE('',*,*,#325,.F.);
#255=ORIENTED_EDGE('',*,*,#324,.T.);
#256=ORIENTED_EDGE('',*,*,#391,.T.);
#257=ORIENTED_EDGE('',*,*,#323,.F.);
#258=ORIENTED_EDGE('',*,*,#395,.F.);
#259=ORIENTED_EDGE('',*,*,#396,.T.);
#260=ORIENTED_EDGE('',*,*,#397,.F.);
#261=ORIENTED_EDGE('',*,*,#395,.T.);
#262=ORIENTED_EDGE('',*,*,#322,.T.);
#263=ORIENTED_EDGE('',*,*,#327,.F.);
#264=ORIENTED_EDGE('',*,*,#329,.F.);
#265=ORIENTED_EDGE('',*,*,#319,.T.);
#266=ORIENTED_EDGE('',*,*,#335,.T.);
#267=ORIENTED_EDGE('',*,*,#339,.F.);
#268=ORIENTED_EDGE('',*,*,#341,.F.);
#269=ORIENTED_EDGE('',*,*,#332,.T.);
#270=ORIENTED_EDGE('',*,*,#347,.T.);
#271=ORIENTED_EDGE('',*,*,#351,.F.);
#272=ORIENTED_EDGE('',*,*,#353,.F.);
#273=ORIENTED_EDGE('',*,*,#344,.T.);
#274=ORIENTED_EDGE('',*,*,#359,.T.);
#275=ORIENTED_EDGE('',*,*,#363,.F.);
#276=ORIENTED_EDGE('',*,*,#365,.F.);
#277=ORIENTED_EDGE('',*,*,#356,.T.);
#278=ORIENTED_EDGE('',*,*,#371,.T.);
#279=ORIENTED_EDGE('',*,*,#375,.F.);
#280=ORIENTED_EDGE('',*,*,#377,.F.);
#281=ORIENTED_EDGE('',*,*,#368,.T.);
#282=ORIENTED_EDGE('',*,*,#383,.T.);
#283=ORIENTED_EDGE('',*,*,#387,.F.);
#284=ORIENTED_EDGE('',*,*,#389,.F.);
#285=ORIENTED_EDGE('',*,*,#380,.T.);
#286=ORIENTED_EDGE('',*,*,#398,.T.);
#287=ORIENTED_EDGE('',*,*,#399,.F.);
#288=ORIENTED_EDGE('',*,*,#400,.F.);
#289=ORIENTED_EDGE('',*,*,#401,.F.);
#290=ORIENTED_EDGE('',*,*,#390,.F.);
#291=ORIENTED_EDGE('',*,*,#397,.T.);
#292=ORIENTED_EDGE('',*,*,#392,.T.);
#293=ORIENTED_EDGE('',*,*,#396,.F.);
#294=ORIENTED_EDGE('',*,*,#400,.T.);
#295=ORIENTED_EDGE('',*,*,#402,.T.);
#296=ORIENTED_EDGE('',*,*,#403,.F.);
#297=ORIENTED_EDGE('',*,*,#398,.F.);
#298=ORIENTED_EDGE('',*,*,#379,.T.);
#299=ORIENTED_EDGE('',*,*,#394,.F.);
#300=ORIENTED_EDGE('',*,*,#393,.T.);
#301=ORIENTED_EDGE('',*,*,#402,.F.);
#302=ORIENTED_EDGE('',*,*,#399,.T.);
#303=ORIENTED_EDGE('',*,*,#403,.T.);
#304=ORIENTED_EDGE('',*,*,#404,.T.);
#305=ORIENTED_EDGE('',*,*,#401,.T.);
#306=ORIENTED_EDGE('',*,*,#405,.T.);
#307=ORIENTED_EDGE('',*,*,#406,.T.);
#308=ORIENTED_EDGE('',*,*,#407,.T.);
#309=ORIENTED_EDGE('',*,*,#408,.T.);
#310=ORIENTED_EDGE('',*,*,#409,.T.);
#311=ORIENTED_EDGE('',*,*,#405,.F.);
#312=ORIENTED_EDGE('',*,*,#407,.F.);
#313=ORIENTED_EDGE('',*,*,#404,.F.);
#314=ORIENTED_EDGE('',*,*,#408,.F.);
#315=ORIENTED_EDGE('',*,*,#409,.F.);
#316=ORIENTED_EDGE('',*,*,#406,.F.);
#317=EDGE_CURVE('',#410,#411,#475,.T.);
#318=EDGE_CURVE('',#412,#411,#19,.T.);
#319=EDGE_CURVE('',#413,#412,#476,.T.);
#320=EDGE_CURVE('',#413,#410,#20,.T.);
#321=EDGE_CURVE('',#414,#415,#21,.T.);
#322=EDGE_CURVE('',#416,#414,#22,.F.);
#323=EDGE_CURVE('',#416,#417,#23,.T.);
#324=EDGE_CURVE('',#415,#417,#24,.F.);
#325=EDGE_CURVE('',#415,#418,#477,.T.);
#326=EDGE_CURVE('',#419,#418,#25,.T.);
#327=EDGE_CURVE('',#419,#414,#478,.F.);
#328=EDGE_CURVE('',#418,#410,#26,.F.);
#329=EDGE_CURVE('',#413,#419,#27,.F.);
#330=EDGE_CURVE('',#420,#421,#479,.T.);
#331=EDGE_CURVE('',#422,#421,#28,.T.);
#332=EDGE_CURVE('',#423,#422,#480,.T.);
#333=EDGE_CURVE('',#423,#420,#29,.T.);
#334=EDGE_CURVE('',#424,#425,#30,.T.);
#335=EDGE_CURVE('',#412,#424,#31,.F.);
#336=EDGE_CURVE('',#425,#411,#32,.F.);
#337=EDGE_CURVE('',#425,#426,#481,.T.);
#338=EDGE_CURVE('',#427,#426,#33,.T.);
#339=EDGE_CURVE('',#427,#424,#482,.F.);
#340=EDGE_CURVE('',#426,#420,#34,.F.);
#341=EDGE_CURVE('',#423,#427,#35,.F.);
#342=EDGE_CURVE('',#428,#429,#483,.T.);
#343=EDGE_CURVE('',#430,#429,#36,.T.);
#344=EDGE_CURVE('',#431,#430,#484,.T.);
#345=EDGE_CURVE('',#431,#428,#37,.T.);
#346=EDGE_CURVE('',#432,#433,#38,.T.);
#347=EDGE_CURVE('',#422,#432,#39,.F.);
#348=EDGE_CURVE('',#433,#421,#40,.F.);
#349=EDGE_CURVE('',#433,#434,#485,.T.);
#350=EDGE_CURVE('',#435,#434,#41,.T.);
#351=EDGE_CURVE('',#435,#432,#486,.F.);
#352=EDGE_CURVE('',#434,#428,#42,.F.);
#353=EDGE_CURVE('',#431,#435,#43,.F.);
#354=EDGE_CURVE('',#436,#437,#487,.T.);
#355=EDGE_CURVE('',#438,#437,#44,.T.);
#356=EDGE_CURVE('',#439,#438,#488,.T.);
#357=EDGE_CURVE('',#439,#436,#45,.T.);
#358=EDGE_CURVE('',#440,#441,#46,.T.);
#359=EDGE_CURVE('',#430,#440,#47,.F.);
#360=EDGE_CURVE('',#441,#429,#48,.F.);
#361=EDGE_CURVE('',#441,#442,#489,.T.);
#362=EDGE_CURVE('',#443,#442,#49,.T.);
#363=EDGE_CURVE('',#443,#440,#490,.F.);
#364=EDGE_CURVE('',#442,#436,#50,.F.);
#365=EDGE_CURVE('',#439,#443,#51,.F.);
#366=EDGE_CURVE('',#444,#445,#491,.T.);
#367=EDGE_CURVE('',#446,#445,#52,.T.);
#368=EDGE_CURVE('',#447,#446,#492,.T.);
#369=EDGE_CURVE('',#447,#444,#53,.T.);
#370=EDGE_CURVE('',#448,#449,#54,.T.);
#371=EDGE_CURVE('',#438,#448,#55,.F.);
#372=EDGE_CURVE('',#449,#437,#56,.F.);
#373=EDGE_CURVE('',#449,#450,#493,.T.);
#374=EDGE_CURVE('',#451,#450,#57,.T.);
#375=EDGE_CURVE('',#451,#448,#494,.F.);
#376=EDGE_CURVE('',#450,#444,#58,.F.);
#377=EDGE_CURVE('',#447,#451,#59,.F.);
#378=EDGE_CURVE('',#452,#453,#495,.T.);
#379=EDGE_CURVE('',#454,#453,#60,.T.);
#380=EDGE_CURVE('',#455,#454,#496,.T.);
#381=EDGE_CURVE('',#455,#452,#61,.T.);
#382=EDGE_CURVE('',#456,#457,#62,.T.);
#383=EDGE_CURVE('',#446,#456,#63,.F.);
#384=EDGE_CURVE('',#457,#445,#64,.F.);
#385=EDGE_CURVE('',#457,#458,#497,.T.);
#386=EDGE_CURVE('',#459,#458,#65,.T.);
#387=EDGE_CURVE('',#459,#456,#498,.F.);
#388=EDGE_CURVE('',#458,#452,#66,.F.);
#389=EDGE_CURVE('',#455,#459,#67,.F.);
#390=EDGE_CURVE('',#460,#460,#499,.T.);
#391=EDGE_CURVE('',#461,#417,#500,.T.);
#392=EDGE_CURVE('',#462,#461,#68,.F.);
#393=EDGE_CURVE('',#463,#462,#501,.T.);
#394=EDGE_CURVE('',#463,#453,#69,.F.);
#395=EDGE_CURVE('',#464,#416,#502,.T.);
#396=EDGE_CURVE('',#464,#461,#70,.T.);
#397=EDGE_CURVE('',#465,#465,#503,.T.);
#398=EDGE_CURVE('',#454,#466,#71,.F.);
#399=EDGE_CURVE('',#467,#466,#504,.F.);
#400=EDGE_CURVE('',#464,#467,#72,.F.);
#401=EDGE_CURVE('',#468,#468,#505,.T.);
#402=EDGE_CURVE('',#467,#462,#73,.T.);
#403=EDGE_CURVE('',#466,#463,#74,.T.);
#404=EDGE_CURVE('',#469,#469,#506,.F.);
#405=EDGE_CURVE('',#470,#470,#507,.F.);
#406=EDGE_CURVE('',#471,#471,#508,.T.);
#407=EDGE_CURVE('',#472,#472,#509,.T.);
#408=EDGE_CURVE('',#473,#473,#510,.T.);
#409=EDGE_CURVE('',#474,#474,#511,.F.);
#410=VERTEX_POINT('',#981);
#411=VERTEX_POINT('',#982);
#412=VERTEX_POINT('',#984);
#413=VERTEX_POINT('',#986);
#414=VERTEX_POINT('',#990);
#415=VERTEX_POINT('',#991);
#416=VERTEX_POINT('',#993);
#417=VERTEX_POINT('',#995);
#418=VERTEX_POINT('',#999);
#419=VERTEX_POINT('',#1001);
#420=VERTEX_POINT('',#1008);
#421=VERTEX_POINT('',#1009);
#422=VERTEX_POINT('',#1011);
#423=VERTEX_POINT('',#1013);
#424=VERTEX_POINT('',#1017);
#425=VERTEX_POINT('',#1018);
#426=VERTEX_POINT('',#1023);
#427=VERTEX_POINT('',#1025);
#428=VERTEX_POINT('',#1032);
#429=VERTEX_POINT('',#1033);
#430=VERTEX_POINT('',#1035);
#431=VERTEX_POINT('',#1037);
#432=VERTEX_POINT('',#1041);
#433=VERTEX_POINT('',#1042);
#434=VERTEX_POINT('',#1047);
#435=VERTEX_POINT('',#1049);
#436=VERTEX_POINT('',#1056);
#437=VERTEX_POINT('',#1057);
#438=VERTEX_POINT('',#1059);
#439=VERTEX_POINT('',#1061);
#440=VERTEX_POINT('',#1065);
#441=VERTEX_POINT('',#1066);
#442=VERTEX_POINT('',#1071);
#443=VERTEX_POINT('',#1073);
#444=VERTEX_POINT('',#1080);
#445=VERTEX_POINT('',#1081);
#446=VERTEX_POINT('',#1083);
#447=VERTEX_POINT('',#1085);
#448=VERTEX_POINT('',#1089);
#449=VERTEX_POINT('',#1090);
#450=VERTEX_POINT('',#1095);
#451=VERTEX_POINT('',#1097);
#452=VERTEX_POINT('',#1104);
#453=VERTEX_POINT('',#1105);
#454=VERTEX_POINT('',#1107);
#455=VERTEX_POINT('',#1109);
#456=VERTEX_POINT('',#1113);
#457=VERTEX_POINT('',#1114);
#458=VERTEX_POINT('',#1119);
#459=VERTEX_POINT('',#1121);
#460=VERTEX_POINT('',#1128);
#461=VERTEX_POINT('',#1130);
#462=VERTEX_POINT('',#1132);
#463=VERTEX_POINT('',#1134);
#464=VERTEX_POINT('',#1138);
#465=VERTEX_POINT('',#1142);
#466=VERTEX_POINT('',#1144);
#467=VERTEX_POINT('',#1146);
#468=VERTEX_POINT('',#1150);
#469=VERTEX_POINT('',#1159);
#470=VERTEX_POINT('',#1162);
#471=VERTEX_POINT('',#1164);
#472=VERTEX_POINT('',#1167);
#473=VERTEX_POINT('',#1170);
#474=VERTEX_POINT('',#1172);
#475=CIRCLE('',#693,0.013462);
#476=CIRCLE('',#694,0.009525);
#477=CIRCLE('',#697,0.013462);
#478=CIRCLE('',#698,0.009525);
#479=CIRCLE('',#701,0.013462);
#480=CIRCLE('',#702,0.009525);
#481=CIRCLE('',#705,0.013462);
#482=CIRCLE('',#706,0.009525);
#483=CIRCLE('',#709,0.013462);
#484=CIRCLE('',#710,0.009525);
#485=CIRCLE('',#713,0.013462);
#486=CIRCLE('',#714,0.009525);
#487=CIRCLE('',#717,0.013462);
#488=CIRCLE('',#718,0.009525);
#489=CIRCLE('',#721,0.013462);
#490=CIRCLE('',#722,0.009525);
#491=CIRCLE('',#725,0.013462);
#492=CIRCLE('',#726,0.009525);
#493=CIRCLE('',#729,0.013462);
#494=CIRCLE('',#730,0.009525);
#495=CIRCLE('',#733,0.013462);
#496=CIRCLE('',#734,0.009525);
#497=CIRCLE('',#737,0.013462);
#498=CIRCLE('',#738,0.009525);
#499=CIRCLE('',#741,0.013462);
#500=CIRCLE('',#742,0.013462);
#501=CIRCLE('',#743,0.013462);
#502=CIRCLE('',#745,0.009525);
#503=CIRCLE('',#747,0.009525);
#504=CIRCLE('',#748,0.009525);
#505=CIRCLE('',#750,0.009525);
#506=CIRCLE('',#756,0.0125346701994075);
#507=CIRCLE('',#758,0.015875);
#508=CIRCLE('',#759,0.015875);
#509=CIRCLE('',#761,0.014605);
#510=CIRCLE('',#763,0.013799837465984);
#511=CIRCLE('',#764,0.014605);
#512=EDGE_LOOP('',(#131,#132,#133,#134));
#513=EDGE_LOOP('',(#135,#136,#137,#138));
#514=EDGE_LOOP('',(#139,#140,#141,#142));
#515=EDGE_LOOP('',(#143,#144,#145,#146));
#516=EDGE_LOOP('',(#147,#148,#149,#150));
#517=EDGE_LOOP('',(#151,#152,#153,#154));
#518=EDGE_LOOP('',(#155,#156,#157,#158));
#519=EDGE_LOOP('',(#159,#160,#161,#162));
#520=EDGE_LOOP('',(#163,#164,#165,#166));
#521=EDGE_LOOP('',(#167,#168,#169,#170));
#522=EDGE_LOOP('',(#171,#172,#173,#174));
#523=EDGE_LOOP('',(#175,#176,#177,#178));
#524=EDGE_LOOP('',(#179,#180,#181,#182));
#525=EDGE_LOOP('',(#183,#184,#185,#186));
#526=EDGE_LOOP('',(#187,#188,#189,#190));
#527=EDGE_LOOP('',(#191,#192,#193,#194));
#528=EDGE_LOOP('',(#195,#196,#197,#198));
#529=EDGE_LOOP('',(#199,#200,#201,#202));
#530=EDGE_LOOP('',(#203,#204,#205,#206));
#531=EDGE_LOOP('',(#207,#208,#209,#210));
#532=EDGE_LOOP('',(#211,#212,#213,#214));
#533=EDGE_LOOP('',(#215,#216,#217,#218));
#534=EDGE_LOOP('',(#219,#220,#221,#222));
#535=EDGE_LOOP('',(#223,#224,#225,#226));
#536=EDGE_LOOP('',(#227));
#537=EDGE_LOOP('',(#228,#229,#230,#231,#232,#233,#234,#235,#236,#237,#238,
#239,#240,#241,#242,#243,#244,#245,#246,#247,#248,#249,#250,#251,#252,#253,
#254,#255));
#538=EDGE_LOOP('',(#256,#257,#258,#259));
#539=EDGE_LOOP('',(#260));
#540=EDGE_LOOP('',(#261,#262,#263,#264,#265,#266,#267,#268,#269,#270,#271,
#272,#273,#274,#275,#276,#277,#278,#279,#280,#281,#282,#283,#284,#285,#286,
#287,#288));
#541=EDGE_LOOP('',(#289));
#542=EDGE_LOOP('',(#290));
#543=EDGE_LOOP('',(#291));
#544=EDGE_LOOP('',(#292,#293,#294,#295));
#545=EDGE_LOOP('',(#296,#297,#298,#299));
#546=EDGE_LOOP('',(#300,#301,#302,#303));
#547=EDGE_LOOP('',(#304));
#548=EDGE_LOOP('',(#305));
#549=EDGE_LOOP('',(#306));
#550=EDGE_LOOP('',(#307));
#551=EDGE_LOOP('',(#308));
#552=EDGE_LOOP('',(#309));
#553=EDGE_LOOP('',(#310));
#554=EDGE_LOOP('',(#311));
#555=EDGE_LOOP('',(#312));
#556=EDGE_LOOP('',(#313));
#557=EDGE_LOOP('',(#314));
#558=EDGE_LOOP('',(#315));
#559=EDGE_LOOP('',(#316));
#560=FACE_BOUND('',#512,.T.);
#561=FACE_BOUND('',#513,.T.);
#562=FACE_BOUND('',#514,.T.);
#563=FACE_BOUND('',#515,.T.);
#564=FACE_BOUND('',#516,.T.);
#565=FACE_BOUND('',#517,.T.);
#566=FACE_BOUND('',#518,.T.);
#567=FACE_BOUND('',#519,.T.);
#568=FACE_BOUND('',#520,.T.);
#569=FACE_BOUND('',#521,.T.);
#570=FACE_BOUND('',#522,.T.);
#571=FACE_BOUND('',#523,.T.);
#572=FACE_BOUND('',#524,.T.);
#573=FACE_BOUND('',#525,.T.);
#574=FACE_BOUND('',#526,.T.);
#575=FACE_BOUND('',#527,.T.);
#576=FACE_BOUND('',#528,.T.);
#577=FACE_BOUND('',#529,.T.);
#578=FACE_BOUND('',#530,.T.);
#579=FACE_BOUND('',#531,.T.);
#580=FACE_BOUND('',#532,.T.);
#581=FACE_BOUND('',#533,.T.);
#582=FACE_BOUND('',#534,.T.);
#583=FACE_BOUND('',#535,.T.);
#584=FACE_BOUND('',#536,.T.);
#585=FACE_BOUND('',#537,.T.);
#586=FACE_BOUND('',#538,.T.);
#587=FACE_BOUND('',#539,.T.);
#588=FACE_BOUND('',#540,.T.);
#589=FACE_BOUND('',#541,.T.);
#590=FACE_BOUND('',#542,.T.);
#591=FACE_BOUND('',#543,.T.);
#592=FACE_BOUND('',#544,.T.);
#593=FACE_BOUND('',#545,.T.);
#594=FACE_BOUND('',#546,.T.);
#595=FACE_BOUND('',#547,.T.);
#596=FACE_BOUND('',#548,.T.);
#597=FACE_BOUND('',#549,.T.);
#598=FACE_BOUND('',#550,.T.);
#599=FACE_BOUND('',#551,.T.);
#600=FACE_BOUND('',#552,.T.);
#601=FACE_BOUND('',#553,.T.);
#602=FACE_BOUND('',#554,.T.);
#603=FACE_BOUND('',#555,.T.);
#604=FACE_BOUND('',#556,.T.);
#605=FACE_BOUND('',#557,.T.);
#606=FACE_BOUND('',#558,.T.);
#607=FACE_BOUND('',#559,.T.);
#608=PLANE('',#692);
#609=PLANE('',#695);
#610=PLANE('',#696);
#611=PLANE('',#699);
#612=PLANE('',#700);
#613=PLANE('',#703);
#614=PLANE('',#704);
#615=PLANE('',#707);
#616=PLANE('',#708);
#617=PLANE('',#711);
#618=PLANE('',#712);
#619=PLANE('',#715);
#620=PLANE('',#716);
#621=PLANE('',#719);
#622=PLANE('',#720);
#623=PLANE('',#723);
#624=PLANE('',#724);
#625=PLANE('',#727);
#626=PLANE('',#728);
#627=PLANE('',#731);
#628=PLANE('',#732);
#629=PLANE('',#735);
#630=PLANE('',#736);
#631=PLANE('',#739);
#632=PLANE('',#744);
#633=PLANE('',#749);
#634=PLANE('',#751);
#635=PLANE('',#752);
#636=PLANE('',#753);
#637=PLANE('',#754);
#638=PLANE('',#760);
#639=PLANE('',#762);
#640=ADVANCED_FACE('',(#560),#608,.T.);
#641=ADVANCED_FACE('',(#561),#609,.F.);
#642=ADVANCED_FACE('',(#562),#610,.T.);
#643=ADVANCED_FACE('',(#563),#611,.T.);
#644=ADVANCED_FACE('',(#564),#612,.T.);
#645=ADVANCED_FACE('',(#565),#613,.F.);
#646=ADVANCED_FACE('',(#566),#614,.T.);
#647=ADVANCED_FACE('',(#567),#615,.T.);
#648=ADVANCED_FACE('',(#568),#616,.T.);
#649=ADVANCED_FACE('',(#569),#617,.F.);
#650=ADVANCED_FACE('',(#570),#618,.T.);
#651=ADVANCED_FACE('',(#571),#619,.T.);
#652=ADVANCED_FACE('',(#572),#620,.T.);
#653=ADVANCED_FACE('',(#573),#621,.F.);
#654=ADVANCED_FACE('',(#574),#622,.T.);
#655=ADVANCED_FACE('',(#575),#623,.T.);
#656=ADVANCED_FACE('',(#576),#624,.T.);
#657=ADVANCED_FACE('',(#577),#625,.F.);
#658=ADVANCED_FACE('',(#578),#626,.T.);
#659=ADVANCED_FACE('',(#579),#627,.T.);
#660=ADVANCED_FACE('',(#580),#628,.T.);
#661=ADVANCED_FACE('',(#581),#629,.F.);
#662=ADVANCED_FACE('',(#582),#630,.T.);
#663=ADVANCED_FACE('',(#583),#631,.T.);
#664=ADVANCED_FACE('',(#584,#585),#16,.T.);
#665=ADVANCED_FACE('',(#586),#632,.T.);
#666=ADVANCED_FACE('',(#587,#588),#17,.F.);
#667=ADVANCED_FACE('',(#589,#590),#633,.F.);
#668=ADVANCED_FACE('',(#591),#634,.T.);
#669=ADVANCED_FACE('',(#592),#635,.T.);
#670=ADVANCED_FACE('',(#593),#636,.F.);
#671=ADVANCED_FACE('',(#594),#637,.T.);
#672=ADVANCED_FACE('',(#595,#596),#15,.T.);
#673=ADVANCED_FACE('',(#597,#598),#18,.T.);
#674=ADVANCED_FACE('',(#599),#638,.T.);
#675=ADVANCED_FACE('',(#600,#601),#639,.F.);
#676=ADVANCED_FACE('',(#602,#603),#12,.T.);
#677=ADVANCED_FACE('',(#604,#605),#13,.F.);
#678=ADVANCED_FACE('',(#606,#607),#14,.T.);
#679=CLOSED_SHELL('',(#640,#641,#642,#643,#644,#645,#646,#647,#648,#649,
#650,#651,#652,#653,#654,#655,#656,#657,#658,#659,#660,#661,#662,#663,#664,
#665,#666,#667,#668,#669,#670,#671,#672,#673,#674,#675,#676,#677,#678));
#680=STYLED_ITEM('',(#681),#688);
#681=PRESENTATION_STYLE_ASSIGNMENT((#682));
#682=SURFACE_STYLE_USAGE(.BOTH.,#683);
#683=SURFACE_SIDE_STYLE('',(#684));
#684=SURFACE_STYLE_FILL_AREA(#685);
#685=FILL_AREA_STYLE('',(#686));
#686=FILL_AREA_STYLE_COLOUR('',#687);
#687=COLOUR_RGB('',0.764705882352941,0.545098039215686,0.803921568627451);
#688=MANIFOLD_SOLID_BREP('Rook',#679);
#689=SHAPE_DEFINITION_REPRESENTATION(#1182,#690);
#690=SHAPE_REPRESENTATION('Rook',(#691),#1177);
#691=AXIS2_PLACEMENT_3D('',#978,#768,#769);
#692=AXIS2_PLACEMENT_3D('',#979,#770,#771);
#693=AXIS2_PLACEMENT_3D('',#980,#772,#773);
#694=AXIS2_PLACEMENT_3D('',#985,#775,#776);
#695=AXIS2_PLACEMENT_3D('',#988,#778,#779);
#696=AXIS2_PLACEMENT_3D('',#997,#784,#785);
#697=AXIS2_PLACEMENT_3D('',#998,#786,#787);
#698=AXIS2_PLACEMENT_3D('',#1002,#789,#790);
#699=AXIS2_PLACEMENT_3D('',#1003,#791,#792);
#700=AXIS2_PLACEMENT_3D('',#1006,#795,#796);
#701=AXIS2_PLACEMENT_3D('',#1007,#797,#798);
#702=AXIS2_PLACEMENT_3D('',#1012,#800,#801);
#703=AXIS2_PLACEMENT_3D('',#1015,#803,#804);
#704=AXIS2_PLACEMENT_3D('',#1021,#808,#809);
#705=AXIS2_PLACEMENT_3D('',#1022,#810,#811);
#706=AXIS2_PLACEMENT_3D('',#1026,#813,#814);
#707=AXIS2_PLACEMENT_3D('',#1027,#815,#816);
#708=AXIS2_PLACEMENT_3D('',#1030,#819,#820);
#709=AXIS2_PLACEMENT_3D('',#1031,#821,#822);
#710=AXIS2_PLACEMENT_3D('',#1036,#824,#825);
#711=AXIS2_PLACEMENT_3D('',#1039,#827,#828);
#712=AXIS2_PLACEMENT_3D('',#1045,#832,#833);
#713=AXIS2_PLACEMENT_3D('',#1046,#834,#835);
#714=AXIS2_PLACEMENT_3D('',#1050,#837,#838);
#715=AXIS2_PLACEMENT_3D('',#1051,#839,#840);
#716=AXIS2_PLACEMENT_3D('',#1054,#843,#844);
#717=AXIS2_PLACEMENT_3D('',#1055,#845,#846);
#718=AXIS2_PLACEMENT_3D('',#1060,#848,#849);
#719=AXIS2_PLACEMENT_3D('',#1063,#851,#852);
#720=AXIS2_PLACEMENT_3D('',#1069,#856,#857);
#721=AXIS2_PLACEMENT_3D('',#1070,#858,#859);
#722=AXIS2_PLACEMENT_3D('',#1074,#861,#862);
#723=AXIS2_PLACEMENT_3D('',#1075,#863,#864);
#724=AXIS2_PLACEMENT_3D('',#1078,#867,#868);
#725=AXIS2_PLACEMENT_3D('',#1079,#869,#870);
#726=AXIS2_PLACEMENT_3D('',#1084,#872,#873);
#727=AXIS2_PLACEMENT_3D('',#1087,#875,#876);
#728=AXIS2_PLACEMENT_3D('',#1093,#880,#881);
#729=AXIS2_PLACEMENT_3D('',#1094,#882,#883);
#730=AXIS2_PLACEMENT_3D('',#1098,#885,#886);
#731=AXIS2_PLACEMENT_3D('',#1099,#887,#888);
#732=AXIS2_PLACEMENT_3D('',#1102,#891,#892);
#733=AXIS2_PLACEMENT_3D('',#1103,#893,#894);
#734=AXIS2_PLACEMENT_3D('',#1108,#896,#897);
#735=AXIS2_PLACEMENT_3D('',#1111,#899,#900);
#736=AXIS2_PLACEMENT_3D('',#1117,#904,#905);
#737=AXIS2_PLACEMENT_3D('',#1118,#906,#907);
#738=AXIS2_PLACEMENT_3D('',#1122,#909,#910);
#739=AXIS2_PLACEMENT_3D('',#1123,#911,#912);
#740=AXIS2_PLACEMENT_3D('',#1126,#915,#916);
#741=AXIS2_PLACEMENT_3D('',#1127,#917,#918);
#742=AXIS2_PLACEMENT_3D('',#1129,#919,#920);
#743=AXIS2_PLACEMENT_3D('',#1133,#922,#923);
#744=AXIS2_PLACEMENT_3D('',#1136,#925,#926);
#745=AXIS2_PLACEMENT_3D('',#1137,#927,#928);
#746=AXIS2_PLACEMENT_3D('',#1140,#930,#931);
#747=AXIS2_PLACEMENT_3D('',#1141,#932,#933);
#748=AXIS2_PLACEMENT_3D('',#1145,#935,#936);
#749=AXIS2_PLACEMENT_3D('',#1148,#938,#939);
#750=AXIS2_PLACEMENT_3D('',#1149,#940,#941);
#751=AXIS2_PLACEMENT_3D('',#1151,#942,#943);
#752=AXIS2_PLACEMENT_3D('',#1152,#944,#945);
#753=AXIS2_PLACEMENT_3D('',#1154,#947,#948);
#754=AXIS2_PLACEMENT_3D('',#1156,#950,#951);
#755=AXIS2_PLACEMENT_3D('',#1157,#952,#953);
#756=AXIS2_PLACEMENT_3D('',#1158,#954,#955);
#757=AXIS2_PLACEMENT_3D('',#1160,#956,#957);
#758=AXIS2_PLACEMENT_3D('',#1161,#958,#959);
#759=AXIS2_PLACEMENT_3D('',#1163,#960,#961);
#760=AXIS2_PLACEMENT_3D('',#1165,#962,#963);
#761=AXIS2_PLACEMENT_3D('',#1166,#964,#965);
#762=AXIS2_PLACEMENT_3D('',#1168,#966,#967);
#763=AXIS2_PLACEMENT_3D('',#1169,#968,#969);
#764=AXIS2_PLACEMENT_3D('',#1171,#970,#971);
#765=AXIS2_PLACEMENT_3D('',#1173,#972,#973);
#766=AXIS2_PLACEMENT_3D('',#1174,#974,#975);
#767=AXIS2_PLACEMENT_3D('',#1175,#976,#977);
#768=DIRECTION('',(0.,0.,1.));
#769=DIRECTION('',(1.,0.,0.));
#770=DIRECTION('',(0.,0.,1.));
#771=DIRECTION('',(1.,0.,0.));
#772=DIRECTION('',(0.,0.,1.));
#773=DIRECTION('',(1.,-6.12323399573677E-17,0.));
#774=DIRECTION('',(-0.222520933956315,0.974927912181824,0.));
#775=DIRECTION('',(0.,0.,1.));
#776=DIRECTION('',(1.,-6.12323399573677E-17,0.));
#777=DIRECTION('',(0.623489801858733,0.78183148246803,0.));
#778=DIRECTION('',(0.78183148246803,-0.623489801858733,0.));
#779=DIRECTION('',(0.,0.,-1.));
#780=DIRECTION('',(0.623489801858733,0.78183148246803,0.));
#781=DIRECTION('',(0.,0.,1.));
#782=DIRECTION('',(0.623489801858733,0.78183148246803,0.));
#783=DIRECTION('',(0.,0.,-1.));
#784=DIRECTION('',(0.,0.,1.));
#785=DIRECTION('',(0.623489801858733,0.78183148246803,0.));
#786=DIRECTION('',(0.,0.,1.));
#787=DIRECTION('',(0.623489801858733,0.78183148246803,0.));
#788=DIRECTION('',(0.623489801858733,0.78183148246803,0.));
#789=DIRECTION('',(0.,0.,1.));
#790=DIRECTION('',(0.623489801858733,0.78183148246803,0.));
#791=DIRECTION('',(0.78183148246803,-0.623489801858733,0.));
#792=DIRECTION('',(0.,0.,-1.));
#793=DIRECTION('',(0.,0.,-1.));
#794=DIRECTION('',(0.,0.,1.));
#795=DIRECTION('',(0.,0.,1.));
#796=DIRECTION('',(1.,0.,0.));
#797=DIRECTION('',(0.,0.,1.));
#798=DIRECTION('',(1.,-6.12323399573677E-17,0.));
#799=DIRECTION('',(-0.900968867902419,0.433883739117558,0.));
#800=DIRECTION('',(0.,0.,1.));
#801=DIRECTION('',(1.,-6.12323399573677E-17,0.));
#802=DIRECTION('',(-0.222520933956315,0.974927912181824,0.));
#803=DIRECTION('',(0.974927912181824,0.222520933956315,0.));
#804=DIRECTION('',(0.,0.,-1.));
#805=DIRECTION('',(-0.222520933956315,0.974927912181824,0.));
#806=DIRECTION('',(0.,0.,1.));
#807=DIRECTION('',(0.,0.,-1.));
#808=DIRECTION('',(0.,0.,1.));
#809=DIRECTION('',(-0.222520933956315,0.974927912181824,0.));
#810=DIRECTION('',(0.,0.,1.));
#811=DIRECTION('',(-0.222520933956315,0.974927912181824,0.));
#812=DIRECTION('',(-0.222520933956315,0.974927912181824,0.));
#813=DIRECTION('',(0.,0.,1.));
#814=DIRECTION('',(-0.222520933956315,0.974927912181824,0.));
#815=DIRECTION('',(0.974927912181824,0.222520933956315,0.));
#816=DIRECTION('',(0.,0.,-1.));
#817=DIRECTION('',(0.,0.,-1.));
#818=DIRECTION('',(0.,0.,1.));
#819=DIRECTION('',(0.,0.,1.));
#820=DIRECTION('',(1.,0.,0.));
#821=DIRECTION('',(0.,0.,1.));
#822=DIRECTION('',(1.,-6.12323399573677E-17,0.));
#823=DIRECTION('',(-0.900968867902419,-0.433883739117559,0.));
#824=DIRECTION('',(0.,0.,1.));
#825=DIRECTION('',(1.,-6.12323399573677E-17,0.));
#826=DIRECTION('',(-0.900968867902419,0.433883739117558,0.));
#827=DIRECTION('',(0.433883739117558,0.900968867902419,0.));
#828=DIRECTION('',(0.,0.,-1.));
#829=DIRECTION('',(-0.900968867902419,0.433883739117558,0.));
#830=DIRECTION('',(0.,0.,1.));
#831=DIRECTION('',(0.,0.,-1.));
#832=DIRECTION('',(0.,0.,1.));
#833=DIRECTION('',(-0.900968867902419,0.433883739117558,0.));
#834=DIRECTION('',(0.,0.,1.));
#835=DIRECTION('',(-0.900968867902419,0.433883739117558,0.));
#836=DIRECTION('',(-0.900968867902419,0.433883739117558,0.));
#837=DIRECTION('',(0.,0.,1.));
#838=DIRECTION('',(-0.900968867902419,0.433883739117558,0.));
#839=DIRECTION('',(0.433883739117558,0.900968867902419,0.));
#840=DIRECTION('',(0.,0.,-1.));
#841=DIRECTION('',(0.,0.,-1.));
#842=DIRECTION('',(0.,0.,1.));
#843=DIRECTION('',(0.,0.,1.));
#844=DIRECTION('',(1.,0.,0.));
#845=DIRECTION('',(0.,0.,1.));
#846=DIRECTION('',(1.,-6.12323399573677E-17,0.));
#847=DIRECTION('',(-0.222520933956315,-0.974927912181824,0.));
#848=DIRECTION('',(0.,0.,1.));
#849=DIRECTION('',(1.,-6.12323399573677E-17,0.));
#850=DIRECTION('',(-0.900968867902419,-0.433883739117559,0.));
#851=DIRECTION('',(-0.433883739117559,0.900968867902419,0.));
#852=DIRECTION('',(0.,0.,-1.));
#853=DIRECTION('',(-0.900968867902419,-0.433883739117559,0.));
#854=DIRECTION('',(0.,0.,1.));
#855=DIRECTION('',(0.,0.,-1.));
#856=DIRECTION('',(0.,0.,1.));
#857=DIRECTION('',(-0.900968867902419,-0.433883739117559,0.));
#858=DIRECTION('',(0.,0.,1.));
#859=DIRECTION('',(-0.900968867902419,-0.433883739117559,0.));
#860=DIRECTION('',(-0.900968867902419,-0.433883739117559,0.));
#861=DIRECTION('',(0.,0.,1.));
#862=DIRECTION('',(-0.900968867902419,-0.433883739117559,0.));
#863=DIRECTION('',(-0.433883739117559,0.900968867902419,0.));
#864=DIRECTION('',(0.,0.,-1.));
#865=DIRECTION('',(0.,0.,-1.));
#866=DIRECTION('',(0.,0.,1.));
#867=DIRECTION('',(0.,0.,1.));
#868=DIRECTION('',(1.,0.,0.));
#869=DIRECTION('',(0.,0.,1.));
#870=DIRECTION('',(1.,-6.12323399573677E-17,0.));
#871=DIRECTION('',(0.623489801858734,-0.78183148246803,0.));
#872=DIRECTION('',(0.,0.,1.));
#873=DIRECTION('',(1.,-6.12323399573677E-17,0.));
#874=DIRECTION('',(-0.222520933956315,-0.974927912181824,0.));
#875=DIRECTION('',(-0.974927912181824,0.222520933956315,0.));
#876=DIRECTION('',(0.,0.,-1.));
#877=DIRECTION('',(-0.222520933956315,-0.974927912181824,0.));
#878=DIRECTION('',(0.,0.,1.));
#879=DIRECTION('',(0.,0.,-1.));
#880=DIRECTION('',(0.,0.,1.));
#881=DIRECTION('',(-0.222520933956315,-0.974927912181824,0.));
#882=DIRECTION('',(0.,0.,1.));
#883=DIRECTION('',(-0.222520933956315,-0.974927912181824,0.));
#884=DIRECTION('',(-0.222520933956315,-0.974927912181824,0.));
#885=DIRECTION('',(0.,0.,1.));
#886=DIRECTION('',(-0.222520933956315,-0.974927912181824,0.));
#887=DIRECTION('',(-0.974927912181824,0.222520933956315,0.));
#888=DIRECTION('',(0.,0.,-1.));
#889=DIRECTION('',(0.,0.,-1.));
#890=DIRECTION('',(0.,0.,1.));
#891=DIRECTION('',(0.,0.,1.));
#892=DIRECTION('',(1.,0.,0.));
#893=DIRECTION('',(0.,0.,1.));
#894=DIRECTION('',(1.,-6.12323399573677E-17,0.));
#895=DIRECTION('',(1.,0.,0.));
#896=DIRECTION('',(0.,0.,1.));
#897=DIRECTION('',(1.,-6.12323399573677E-17,0.));
#898=DIRECTION('',(0.623489801858734,-0.78183148246803,0.));
#899=DIRECTION('',(-0.78183148246803,-0.623489801858734,0.));
#900=DIRECTION('',(0.,0.,-1.));
#901=DIRECTION('',(0.623489801858734,-0.78183148246803,0.));
#902=DIRECTION('',(0.,0.,1.));
#903=DIRECTION('',(0.,0.,-1.));
#904=DIRECTION('',(0.,0.,1.));
#905=DIRECTION('',(0.623489801858734,-0.78183148246803,0.));
#906=DIRECTION('',(0.,0.,1.));
#907=DIRECTION('',(0.623489801858734,-0.78183148246803,0.));
#908=DIRECTION('',(0.623489801858734,-0.78183148246803,0.));
#909=DIRECTION('',(0.,0.,1.));
#910=DIRECTION('',(0.623489801858734,-0.78183148246803,0.));
#911=DIRECTION('',(-0.78183148246803,-0.623489801858734,0.));
#912=DIRECTION('',(0.,0.,-1.));
#913=DIRECTION('',(0.,0.,-1.));
#914=DIRECTION('',(0.,0.,1.));
#915=DIRECTION('',(0.,0.,-1.));
#916=DIRECTION('',(-1.,0.,0.));
#917=DIRECTION('',(0.,0.,1.));
#918=DIRECTION('',(1.,-6.12323399573677E-17,0.));
#919=DIRECTION('',(0.,0.,1.));
#920=DIRECTION('',(1.,-6.12323399573677E-17,0.));
#921=DIRECTION('',(0.,0.,-1.));
#922=DIRECTION('',(0.,0.,1.));
#923=DIRECTION('',(1.,0.,0.));
#924=DIRECTION('',(0.,0.,-1.));
#925=DIRECTION('',(0.,0.,1.));
#926=DIRECTION('',(1.,0.,0.));
#927=DIRECTION('',(0.,0.,1.));
#928=DIRECTION('',(1.,-6.12323399573677E-17,0.));
#929=DIRECTION('',(1.,0.,0.));
#930=DIRECTION('',(0.,0.,1.));
#931=DIRECTION('',(1.,0.,0.));
#932=DIRECTION('',(0.,0.,1.));
#933=DIRECTION('',(1.,-6.12323399573677E-17,0.));
#934=DIRECTION('',(0.,0.,1.));
#935=DIRECTION('',(0.,0.,1.));
#936=DIRECTION('',(1.,0.,0.));
#937=DIRECTION('',(0.,0.,1.));
#938=DIRECTION('',(0.,0.,1.));
#939=DIRECTION('',(1.,0.,0.));
#940=DIRECTION('',(0.,0.,-1.));
#941=DIRECTION('',(-1.,0.,0.));
#942=DIRECTION('',(0.,0.,1.));
#943=DIRECTION('',(1.,0.,0.));
#944=DIRECTION('',(0.,-1.,0.));
#945=DIRECTION('',(0.,0.,-1.));
#946=DIRECTION('',(1.,0.,0.));
#947=DIRECTION('',(0.,-1.,0.));
#948=DIRECTION('',(0.,0.,-1.));
#949=DIRECTION('',(1.,0.,0.));
#950=DIRECTION('',(0.,0.,1.));
#951=DIRECTION('',(1.,0.,0.));
#952=DIRECTION('',(0.,0.,-1.));
#953=DIRECTION('',(-1.,0.,0.));
#954=DIRECTION('',(0.,0.,-1.));
#955=DIRECTION('',(-1.,0.,0.));
#956=DIRECTION('',(0.,0.,1.));
#957=DIRECTION('',(1.,0.,0.));
#958=DIRECTION('',(0.,0.,-1.));
#959=DIRECTION('',(-1.,0.,0.));
#960=DIRECTION('',(0.,0.,-1.));
#961=DIRECTION('',(-1.,0.,0.));
#962=DIRECTION('',(0.,0.,-1.));
#963=DIRECTION('',(1.,0.,0.));
#964=DIRECTION('',(0.,0.,-1.));
#965=DIRECTION('',(-1.,0.,0.));
#966=DIRECTION('',(0.,0.,-1.));
#967=DIRECTION('',(1.,0.,0.));
#968=DIRECTION('',(0.,0.,-1.));
#969=DIRECTION('',(-1.,0.,0.));
#970=DIRECTION('',(0.,0.,-1.));
#971=DIRECTION('',(-1.,0.,0.));
#972=DIRECTION('',(0.,0.,-1.));
#973=DIRECTION('',(-1.,0.,0.));
#974=DIRECTION('',(0.,0.,-1.));
#975=DIRECTION('',(-1.,0.,0.));
#976=DIRECTION('',(0.,0.,-1.));
#977=DIRECTION('',(-1.,0.,0.));
#978=CARTESIAN_POINT('',(0.,0.,0.));
#979=CARTESIAN_POINT('',(0.,0.,0.009144));
#980=CARTESIAN_POINT('',(0.,8.24309760506084E-19,0.009144));
#981=CARTESIAN_POINT('',(0.00648425189306082,0.0117974540214123,0.009144));
#982=CARTESIAN_POINT('',(-0.000723385624407292,0.013442550250544,0.009144));
#983=CARTESIAN_POINT('',(-0.000597330653997549,0.0128902673397333,0.009144));
#984=CARTESIAN_POINT('',(0.000171120522964358,0.00952346275083913,0.009144));
#985=CARTESIAN_POINT('',(0.,1.40754779860001E-18,0.009144));
#986=CARTESIAN_POINT('',(0.0039779013638308,0.00865458986547792,0.009144));
#987=CARTESIAN_POINT('',(0.006131053714684,0.011354557514393,0.009144));
#988=CARTESIAN_POINT('',(0.00970558725252783,0.00850396214029492,0.004572));
#989=CARTESIAN_POINT('',(0.00970558725252783,0.00850396214029492,0.004572));
#990=CARTESIAN_POINT('',(0.00755243490167463,0.00580399449137979,0.004572));
#991=CARTESIAN_POINT('',(0.0100587854309046,0.00894685864731417,0.004572));
#992=CARTESIAN_POINT('',(0.00755243490167463,0.00580399449137979,0.002286));
#993=CARTESIAN_POINT('',(0.00755243490167463,0.00580399449137979,0.009144));
#994=CARTESIAN_POINT('',(0.00970558725252783,0.00850396214029492,0.009144));
#995=CARTESIAN_POINT('',(0.0100587854309046,0.00894685864731417,0.009144));
#996=CARTESIAN_POINT('',(0.0100587854309046,0.00894685864731417,0.009144));
#997=CARTESIAN_POINT('',(0.00791832048360592,0.00992925982734398,0.004572));
#998=CARTESIAN_POINT('',(-6.44471322069338E-19,5.13948729248158E-19,0.004572));
#999=CARTESIAN_POINT('',(0.00648425189306082,0.0117974540214123,0.004572));
#1000=CARTESIAN_POINT('',(0.006131053714684,0.011354557514393,0.004572));
#1001=CARTESIAN_POINT('',(0.0039779013638308,0.00865458986547792,0.004572));
#1002=CARTESIAN_POINT('',(-1.10046518202406E-18,8.77591698055817E-19,0.004572));
#1003=CARTESIAN_POINT('',(0.006131053714684,0.011354557514393,0.004572));
#1004=CARTESIAN_POINT('',(0.00648425189306082,0.0117974540214123,0.009144));
#1005=CARTESIAN_POINT('',(0.0039779013638308,0.00865458986547792,0.002286));
#1006=CARTESIAN_POINT('',(0.,0.,0.009144));
#1007=CARTESIAN_POINT('',(0.,8.24309760506084E-19,0.009144));
#1008=CARTESIAN_POINT('',(-0.00518075603890259,0.0124251845404957,0.009144));
#1009=CARTESIAN_POINT('',(-0.010960832550163,0.00781572733706134,0.009144));
#1010=CARTESIAN_POINT('',(-0.010450446394738,0.00756993831881792,0.009144));
#1011=CARTESIAN_POINT('',(-0.00733905109976061,0.00607156931567965,0.009144));
#1012=CARTESIAN_POINT('',(0.,1.40754779860001E-18,0.009144));
#1013=CARTESIAN_POINT('',(-0.00428624989153094,0.00850609704079086,0.009144));
#1014=CARTESIAN_POINT('',(-0.00505470106849285,0.011872901629685,0.009144));
#1015=CARTESIAN_POINT('',(-0.000597330653997549,0.0128902673397333,0.004572));
#1016=CARTESIAN_POINT('',(-0.000597330653997549,0.0128902673397333,0.004572));
#1017=CARTESIAN_POINT('',(0.000171120522964358,0.00952346275083913,0.004572));
#1018=CARTESIAN_POINT('',(-0.000723385624407292,0.013442550250544,0.004572));
#1019=CARTESIAN_POINT('',(0.000171120522964358,0.00952346275083913,0.002286));
#1020=CARTESIAN_POINT('',(-0.000723385624407292,0.013442550250544,0.009144));
#1021=CARTESIAN_POINT('',(-0.00282601586124519,0.0123815844847092,0.004572));
#1022=CARTESIAN_POINT('',(-8.03642593801295E-19,-1.8342617777712E-19,0.004572));
#1023=CARTESIAN_POINT('',(-0.00518075603890259,0.0124251845404957,0.004572));
#1024=CARTESIAN_POINT('',(-0.00505470106849285,0.011872901629685,0.004572));
#1025=CARTESIAN_POINT('',(-0.00428624989153094,0.00850609704079086,0.004572));
#1026=CARTESIAN_POINT('',(-1.37225763658523E-18,-3.13208850732629E-19,0.004572));
#1027=CARTESIAN_POINT('',(-0.00505470106849285,0.011872901629685,0.004572));
#1028=CARTESIAN_POINT('',(-0.00518075603890259,0.0124251845404957,0.009144));
#1029=CARTESIAN_POINT('',(-0.00428624989153094,0.00850609704079086,0.002286));
#1030=CARTESIAN_POINT('',(0.,0.,0.009144));
#1031=CARTESIAN_POINT('',(0.,8.24309760506084E-19,0.009144));
#1032=CARTESIAN_POINT('',(-0.0129445490054084,0.00369649767301148,0.009144));
#1033=CARTESIAN_POINT('',(-0.0129445490054084,-0.00369649767301149,0.009144));
#1034=CARTESIAN_POINT('',(-0.0124341628499835,-0.00345070865476806,0.009144));
#1035=CARTESIAN_POINT('',(-0.00932276755500608,-0.00195233965162979,0.009144));
#1036=CARTESIAN_POINT('',(0.,1.40754779860001E-18,0.009144));
#1037=CARTESIAN_POINT('',(-0.00932276755500608,0.00195233965162979,0.009144));
#1038=CARTESIAN_POINT('',(-0.0124341628499835,0.00345070865476806,0.009144));
#1039=CARTESIAN_POINT('',(-0.010450446394738,0.00756993831881792,0.004572));
#1040=CARTESIAN_POINT('',(-0.010450446394738,0.00756993831881792,0.004572));
#1041=CARTESIAN_POINT('',(-0.00733905109976061,0.00607156931567965,0.004572));
#1042=CARTESIAN_POINT('',(-0.010960832550163,0.00781572733706134,0.004572));
#1043=CARTESIAN_POINT('',(-0.00733905109976061,0.00607156931567965,0.002286));
#1044=CARTESIAN_POINT('',(-0.010960832550163,0.00781572733706134,0.009144));
#1045=CARTESIAN_POINT('',(-0.0114423046223607,0.00551032348679299,0.004572));
#1046=CARTESIAN_POINT('',(-3.57654601079479E-19,-7.4267743172408E-19,0.004572));
#1047=CARTESIAN_POINT('',(-0.0129445490054084,0.00369649767301148,0.004572));
#1048=CARTESIAN_POINT('',(-0.0124341628499835,0.00345070865476806,0.004572));
#1049=CARTESIAN_POINT('',(-0.00932276755500608,0.00195233965162979,0.004572));
#1050=CARTESIAN_POINT('',(-6.1071210184326E-19,-1.26815674662319E-18,0.004572));
#1051=CARTESIAN_POINT('',(-0.0124341628499835,0.00345070865476806,0.004572));
#1052=CARTESIAN_POINT('',(-0.0129445490054084,0.00369649767301148,0.009144));
#1053=CARTESIAN_POINT('',(-0.00932276755500608,0.00195233965162979,0.002286));
#1054=CARTESIAN_POINT('',(0.,0.,0.009144));
#1055=CARTESIAN_POINT('',(0.,8.24309760506084E-19,0.009144));
#1056=CARTESIAN_POINT('',(-0.010960832550163,-0.00781572733706135,0.009144));
#1057=CARTESIAN_POINT('',(-0.00518075603890258,-0.0124251845404957,0.009144));
#1058=CARTESIAN_POINT('',(-0.00505470106849284,-0.011872901629685,0.009144));
#1059=CARTESIAN_POINT('',(-0.00428624989153093,-0.00850609704079086,0.009144));
#1060=CARTESIAN_POINT('',(0.,1.40754779860001E-18,0.009144));
#1061=CARTESIAN_POINT('',(-0.00733905109976061,-0.00607156931567965,0.009144));
#1062=CARTESIAN_POINT('',(-0.010450446394738,-0.00756993831881792,0.009144));
#1063=CARTESIAN_POINT('',(-0.0124341628499835,-0.00345070865476806,0.004572));
#1064=CARTESIAN_POINT('',(-0.0124341628499835,-0.00345070865476806,0.004572));
#1065=CARTESIAN_POINT('',(-0.00932276755500608,-0.00195233965162979,0.004572));
#1066=CARTESIAN_POINT('',(-0.0129445490054084,-0.00369649767301149,0.004572));
#1067=CARTESIAN_POINT('',(-0.00932276755500608,-0.00195233965162979,0.002286));
#1068=CARTESIAN_POINT('',(-0.0129445490054084,-0.00369649767301149,0.009144));
#1069=CARTESIAN_POINT('',(-0.0114423046223607,-0.00551032348679299,0.004572));
#1070=CARTESIAN_POINT('',(3.57654601079479E-19,-7.4267743172408E-19,0.004572));
#1071=CARTESIAN_POINT('',(-0.010960832550163,-0.00781572733706135,0.004572));
#1072=CARTESIAN_POINT('',(-0.010450446394738,-0.00756993831881792,0.004572));
#1073=CARTESIAN_POINT('',(-0.00733905109976061,-0.00607156931567965,0.004572));
#1074=CARTESIAN_POINT('',(6.1071210184326E-19,-1.26815674662319E-18,0.004572));
#1075=CARTESIAN_POINT('',(-0.010450446394738,-0.00756993831881792,0.004572));
#1076=CARTESIAN_POINT('',(-0.010960832550163,-0.00781572733706135,0.009144));
#1077=CARTESIAN_POINT('',(-0.00733905109976061,-0.00607156931567965,0.002286));
#1078=CARTESIAN_POINT('',(0.,0.,0.009144));
#1079=CARTESIAN_POINT('',(0.,8.24309760506084E-19,0.009144));
#1080=CARTESIAN_POINT('',(-0.000723385624407286,-0.013442550250544,0.009144));
#1081=CARTESIAN_POINT('',(0.00648425189306083,-0.0117974540214123,0.009144));
#1082=CARTESIAN_POINT('',(0.006131053714684,-0.011354557514393,0.009144));
#1083=CARTESIAN_POINT('',(0.0039779013638308,-0.00865458986547792,0.009144));
#1084=CARTESIAN_POINT('',(0.,1.40754779860001E-18,0.009144));
#1085=CARTESIAN_POINT('',(0.000171120522964362,-0.00952346275083913,0.009144));
#1086=CARTESIAN_POINT('',(-0.000597330653997543,-0.0128902673397333,0.009144));
#1087=CARTESIAN_POINT('',(-0.00505470106849284,-0.011872901629685,0.004572));
#1088=CARTESIAN_POINT('',(-0.00505470106849284,-0.011872901629685,0.004572));
#1089=CARTESIAN_POINT('',(-0.00428624989153093,-0.00850609704079086,0.004572));
#1090=CARTESIAN_POINT('',(-0.00518075603890258,-0.0124251845404957,0.004572));
#1091=CARTESIAN_POINT('',(-0.00428624989153093,-0.00850609704079086,0.002286));
#1092=CARTESIAN_POINT('',(-0.00518075603890258,-0.0124251845404957,0.009144));
#1093=CARTESIAN_POINT('',(-0.00282601586124519,-0.0123815844847092,0.004572));
#1094=CARTESIAN_POINT('',(8.03642593801295E-19,-1.8342617777712E-19,0.004572));
#1095=CARTESIAN_POINT('',(-0.000723385624407286,-0.013442550250544,0.004572));
#1096=CARTESIAN_POINT('',(-0.000597330653997543,-0.0128902673397333,0.004572));
#1097=CARTESIAN_POINT('',(0.000171120522964362,-0.00952346275083913,0.004572));
#1098=CARTESIAN_POINT('',(1.37225763658523E-18,-3.13208850732629E-19,0.004572));
#1099=CARTESIAN_POINT('',(-0.000597330653997543,-0.0128902673397333,0.004572));
#1100=CARTESIAN_POINT('',(-0.000723385624407286,-0.013442550250544,0.009144));
#1101=CARTESIAN_POINT('',(0.000171120522964362,-0.00952346275083913,0.002286));
#1102=CARTESIAN_POINT('',(0.,0.,0.009144));
#1103=CARTESIAN_POINT('',(0.,8.24309760506084E-19,0.009144));
#1104=CARTESIAN_POINT('',(0.0100587854309047,-0.00894685864731417,0.009144));
#1105=CARTESIAN_POINT('',(0.0132664858949158,-0.002286,0.009144));
#1106=CARTESIAN_POINT('',(0.0127,-0.002286,0.009144));
#1107=CARTESIAN_POINT('',(0.00924661175782784,-0.002286,0.009144));
#1108=CARTESIAN_POINT('',(0.,1.40754779860001E-18,0.009144));
#1109=CARTESIAN_POINT('',(0.00755243490167463,-0.00580399449137979,0.009144));
#1110=CARTESIAN_POINT('',(0.00970558725252784,-0.00850396214029492,0.009144));
#1111=CARTESIAN_POINT('',(0.006131053714684,-0.011354557514393,0.004572));
#1112=CARTESIAN_POINT('',(0.006131053714684,-0.011354557514393,0.004572));
#1113=CARTESIAN_POINT('',(0.0039779013638308,-0.00865458986547792,0.004572));
#1114=CARTESIAN_POINT('',(0.00648425189306083,-0.0117974540214123,0.004572));
#1115=CARTESIAN_POINT('',(0.0039779013638308,-0.00865458986547792,0.002286));
#1116=CARTESIAN_POINT('',(0.00648425189306083,-0.0117974540214123,0.009144));
#1117=CARTESIAN_POINT('',(0.00791832048360592,-0.00992925982734398,0.004572));
#1118=CARTESIAN_POINT('',(6.44471322069338E-19,5.13948729248158E-19,0.004572));
#1119=CARTESIAN_POINT('',(0.0100587854309047,-0.00894685864731417,0.004572));
#1120=CARTESIAN_POINT('',(0.00970558725252784,-0.00850396214029492,0.004572));
#1121=CARTESIAN_POINT('',(0.00755243490167463,-0.00580399449137979,0.004572));
#1122=CARTESIAN_POINT('',(1.10046518202406E-18,8.77591698055817E-19,0.004572));
#1123=CARTESIAN_POINT('',(0.00970558725252784,-0.00850396214029492,0.004572));
#1124=CARTESIAN_POINT('',(0.0100587854309047,-0.00894685864731417,0.009144));
#1125=CARTESIAN_POINT('',(0.00755243490167463,-0.00580399449137979,0.002286));
#1126=CARTESIAN_POINT('',(0.,8.24309760506084E-19,0.009144));
#1127=CARTESIAN_POINT('',(0.,8.24309760506084E-19,0.));
#1128=CARTESIAN_POINT('',(0.013462,0.,0.));
#1129=CARTESIAN_POINT('',(0.,8.24309760506084E-19,0.009144));
#1130=CARTESIAN_POINT('',(0.0132664858949158,0.002286,0.009144));
#1131=CARTESIAN_POINT('',(0.0132664858949158,0.002286,0.009144));
#1132=CARTESIAN_POINT('',(0.0132664858949158,0.002286,0.004572));
#1133=CARTESIAN_POINT('',(0.,8.24309760506084E-19,0.004572));
#1134=CARTESIAN_POINT('',(0.0132664858949158,-0.002286,0.004572));
#1135=CARTESIAN_POINT('',(0.0132664858949158,-0.002286,0.009144));
#1136=CARTESIAN_POINT('',(0.,0.,0.009144));
#1137=CARTESIAN_POINT('',(0.,1.40754779860001E-18,0.009144));
#1138=CARTESIAN_POINT('',(0.00924661175782784,0.002286,0.009144));
#1139=CARTESIAN_POINT('',(0.0127,0.002286,0.009144));
#1140=CARTESIAN_POINT('',(0.,1.40754779860001E-18,0.002286));
#1141=CARTESIAN_POINT('',(0.,1.40754779860001E-18,0.002286));
#1142=CARTESIAN_POINT('',(0.009525,8.24309760506083E-19,0.002286));
#1143=CARTESIAN_POINT('',(0.00924661175782784,-0.002286,0.002286));
#1144=CARTESIAN_POINT('',(0.00924661175782784,-0.002286,0.004572));
#1145=CARTESIAN_POINT('',(0.,1.40754779860001E-18,0.004572));
#1146=CARTESIAN_POINT('',(0.00924661175782784,0.002286,0.004572));
#1147=CARTESIAN_POINT('',(0.00924661175782784,0.002286,0.002286));
#1148=CARTESIAN_POINT('',(0.,0.,0.));
#1149=CARTESIAN_POINT('',(0.,-5.83238038093927E-19,0.));
#1150=CARTESIAN_POINT('',(-0.009525,-5.83238038093927E-19,0.));
#1151=CARTESIAN_POINT('',(0.,0.,0.002286));
#1152=CARTESIAN_POINT('',(0.0127,0.002286,0.004572));
#1153=CARTESIAN_POINT('',(0.0127,0.002286,0.004572));
#1154=CARTESIAN_POINT('',(0.0127,-0.002286,0.004572));
#1155=CARTESIAN_POINT('',(0.0127,-0.002286,0.004572));
#1156=CARTESIAN_POINT('',(0.0127,8.67361737988404E-19,0.004572));
#1157=CARTESIAN_POINT('',(0.,-5.83238038093927E-19,0.));
#1158=CARTESIAN_POINT('',(0.,-5.83238038093927E-19,-0.0344006877932896));
#1159=CARTESIAN_POINT('',(-0.0125346701994075,-5.83238038093927E-19,-0.0344006877932896));
#1160=CARTESIAN_POINT('',(0.,-1.55530143491714E-18,-0.047752));
#1161=CARTESIAN_POINT('',(0.,-1.55530143491714E-18,-0.046482));
#1162=CARTESIAN_POINT('',(-0.015875,-1.55530143491714E-18,-0.046482));
#1163=CARTESIAN_POINT('',(0.,-1.55530143491714E-18,-0.03683));
#1164=CARTESIAN_POINT('',(-0.015875,-1.55530143491714E-18,-0.03683));
#1165=CARTESIAN_POINT('',(0.,0.,-0.047752));
#1166=CARTESIAN_POINT('',(0.,-1.55530143491714E-18,-0.047752));
#1167=CARTESIAN_POINT('',(-0.014605,-1.55530143491714E-18,-0.047752));
#1168=CARTESIAN_POINT('',(0.,0.,-0.03556));
#1169=CARTESIAN_POINT('',(0.,-5.83238038093927E-19,-0.03556));
#1170=CARTESIAN_POINT('',(-0.013799837465984,-5.83238038093927E-19,-0.03556));
#1171=CARTESIAN_POINT('',(0.,-1.55530143491714E-18,-0.03556));
#1172=CARTESIAN_POINT('',(-0.014605,-1.55530143491714E-18,-0.03556));
#1173=CARTESIAN_POINT('',(0.,-1.55530143491714E-18,-0.046482));
#1174=CARTESIAN_POINT('',(0.,-5.83238038093927E-19,-0.03429));
#1175=CARTESIAN_POINT('',(0.,-1.55530143491714E-18,-0.03683));
#1176=MECHANICAL_DESIGN_GEOMETRIC_PRESENTATION_REPRESENTATION('',(#680),
#1177);
#1177=(
GEOMETRIC_REPRESENTATION_CONTEXT(3)
GLOBAL_UNCERTAINTY_ASSIGNED_CONTEXT((#1178))
GLOBAL_UNIT_ASSIGNED_CONTEXT((#1181,#1180,#1179))
REPRESENTATION_CONTEXT('Rook','TOP_LEVEL_ASSEMBLY_PART')
);
#1178=UNCERTAINTY_MEASURE_WITH_UNIT(LENGTH_MEASURE(1.E-8),#1181,
'DISTANCE_ACCURACY_VALUE','Maximum Tolerance applied to model');
#1179=(
NAMED_UNIT(*)
SI_UNIT($,.STERADIAN.)
SOLID_ANGLE_UNIT()
);
#1180=(
NAMED_UNIT(*)
PLANE_ANGLE_UNIT()
SI_UNIT($,.RADIAN.)
);
#1181=(
LENGTH_UNIT()
NAMED_UNIT(*)
SI_UNIT($,.METRE.)
);
#1182=PRODUCT_DEFINITION_SHAPE('','',#1183);
#1183=PRODUCT_DEFINITION('','',#1185,#1184);
#1184=PRODUCT_DEFINITION_CONTEXT('',#1191,'design');
#1185=PRODUCT_DEFINITION_FORMATION_WITH_SPECIFIED_SOURCE('','',#1187,
 .NOT_KNOWN.);
#1186=PRODUCT_RELATED_PRODUCT_CATEGORY('','',(#1187));
#1187=PRODUCT('Rook','Rook','Rook',(#1189));
#1188=PRODUCT_CATEGORY('','');
#1189=PRODUCT_CONTEXT('',#1191,'mechanical');
#1190=APPLICATION_PROTOCOL_DEFINITION('international standard',
'ap242_managed_model_based_3d_engineering',2020,#1191);
#1191=APPLICATION_CONTEXT('managed model based 3d engineering');
ENDSEC;
END-ISO-10303-21;
